<svg width="614" height="572" viewBox="0 0 614 572" fill="none" xmlns="http://www.w3.org/2000/svg">
<path d="M307 571.675C476.551 571.675 614 501.31 614 414.51C614 327.709 476.551 257.344 307 257.344C137.449 257.344 0 327.709 0 414.51C0 501.31 137.449 571.675 307 571.675Z" fill="#FAFAFA"/>
<path d="M482.017 515.968C528.213 515.968 565.662 492.836 565.662 464.3C565.662 435.765 528.213 412.632 482.017 412.632C435.822 412.632 398.373 435.765 398.373 464.3C398.373 492.836 435.822 515.968 482.017 515.968Z" fill="#E0E0E0"/>
<path d="M283.461 371.588L229.863 340.654C228.973 340.198 227.988 339.96 226.988 339.96C225.988 339.96 225.003 340.198 224.113 340.654L46.4707 443.231C46.1226 443.348 45.8198 443.57 45.6053 443.868C45.3908 444.166 45.2754 444.524 45.2754 444.891C45.2754 445.258 45.3908 445.615 45.6053 445.913C45.8198 446.211 46.1226 446.434 46.4707 446.55L100.056 477.497C100.948 477.943 101.932 478.175 102.93 478.175C103.928 478.175 104.912 477.943 105.805 477.497L121.639 468.352L267.614 384.296L283.473 374.971C283.832 374.855 284.144 374.628 284.366 374.324C284.587 374.019 284.705 373.651 284.704 373.275C284.702 372.898 284.581 372.531 284.358 372.228C284.134 371.925 283.82 371.701 283.461 371.588Z" fill="#E0E0E0"/>
<path d="M524.399 445.083L516.115 440.685C516.115 440.685 516.926 400.245 525.312 368.925C533.904 336.859 558.908 301.436 582.537 314.71C606.165 327.984 564.169 355.265 551.538 381.595C538.907 407.924 524.399 445.083 524.399 445.083Z" fill="#080C71"/>
<path opacity="0.15" d="M524.399 445.083L516.115 440.685C516.115 440.685 516.926 400.245 525.312 368.925C533.904 336.859 558.908 301.436 582.537 314.71C606.165 327.984 564.169 355.265 551.538 381.595C538.907 407.924 524.399 445.083 524.399 445.083Z" fill="black"/>
<path d="M523.305 435.488C523.195 435.485 523.087 435.46 522.987 435.415C522.887 435.37 522.796 435.306 522.721 435.225C522.646 435.145 522.587 435.051 522.548 434.949C522.509 434.846 522.491 434.736 522.495 434.627C524.27 371.871 551.705 333.554 574.664 319.817C574.856 319.703 575.084 319.669 575.3 319.723C575.516 319.777 575.701 319.915 575.816 320.106C575.93 320.297 575.964 320.526 575.909 320.742C575.855 320.958 575.717 321.143 575.526 321.257C552.927 334.776 525.929 372.591 524.167 434.665C524.165 434.776 524.141 434.886 524.097 434.987C524.053 435.089 523.988 435.181 523.908 435.257C523.828 435.334 523.733 435.394 523.63 435.434C523.526 435.473 523.416 435.492 523.305 435.488Z" fill="white"/>
<path d="M528.142 447.013L520.746 443.219C520.746 443.219 521.659 423.359 536.876 397.48C550.381 374.495 577.752 356.487 589.251 362.906C598.178 367.871 600.236 378.752 591.682 385.994C583.129 393.235 543.641 408.426 528.142 447.013Z" fill="#080C71"/>
<path d="M525.169 440.672C526.455 440.929 526.906 437.752 527.163 436.942C527.652 435.424 528.166 433.932 528.732 432.44C529.84 429.538 531.098 426.696 532.501 423.925C535.202 418.595 538.365 413.512 541.955 408.734C545.309 404.262 548.966 400.024 552.901 396.052C556.451 392.48 560.186 389.097 564.091 385.916C567.358 383.241 570.754 380.707 574.239 378.328C576.812 376.578 579.384 374.906 582.072 373.337C583.474 372.514 584.876 371.703 586.33 370.957L586.742 370.752C586.972 370.639 587.148 370.44 587.231 370.197C587.314 369.955 587.298 369.689 587.185 369.459C587.073 369.229 586.873 369.053 586.631 368.969C586.388 368.886 586.123 368.903 585.893 369.015C584.992 369.453 584.13 369.941 583.32 370.43C581.056 371.716 578.844 373.003 576.67 374.443C573.446 376.527 570.299 378.731 567.229 381.054C563.422 383.936 559.765 386.993 556.258 390.225C552.26 393.886 548.496 397.796 544.99 401.93C541.189 406.387 537.748 411.14 534.7 416.143C531.458 421.438 528.744 427.039 526.597 432.864C526.194 433.988 525.808 435.107 525.439 436.221C524.898 437.334 524.571 438.538 524.475 439.771C524.49 439.967 524.56 440.155 524.676 440.314C524.792 440.473 524.949 440.597 525.131 440.672H525.169Z" fill="white"/>
<path d="M105.432 409.815C105.432 409.815 105.638 384.592 95.7211 363.716C85.8041 342.84 70.2921 328.718 54.5613 325.489C38.8306 322.261 24.3218 335.252 40.014 347.355C55.7061 359.459 84.5308 373.466 93.7402 412.67L105.432 409.815Z" fill="#080C71"/>
<path opacity="0.15" d="M105.432 409.815C105.432 409.815 105.638 384.592 95.7211 363.716C85.8041 342.84 70.2921 328.718 54.5613 325.489C38.8306 322.261 24.3218 335.252 40.014 347.355C55.7061 359.459 84.5308 373.466 93.7402 412.67L105.432 409.815Z" fill="black"/>
<path d="M98.8719 405.455C98.7078 405.455 98.5498 405.392 98.4303 405.28C98.3107 405.168 98.2386 405.014 98.2288 404.85C95.8107 364.475 62.5485 338.223 46.1103 333.747C45.9471 333.701 45.8083 333.594 45.724 333.447C45.6397 333.3 45.6167 333.126 45.6601 332.962C45.7054 332.795 45.8145 332.653 45.9638 332.567C46.1131 332.48 46.2905 332.456 46.4576 332.499C63.1787 337.065 97.0583 363.755 99.515 404.773C99.5191 404.942 99.459 405.106 99.3468 405.233C99.2347 405.359 99.0788 405.438 98.9105 405.455H98.8719Z" fill="white"/>
<path d="M107.464 444.44C110.651 440.42 112.789 435.67 113.687 430.619C114.585 425.568 114.214 420.373 112.609 415.5C111.675 412.558 110.182 409.823 108.21 407.448C106.628 405.583 104.351 404.618 102.499 403.062C98.5119 399.756 93.8814 396.245 92.4408 390.997C91.2832 386.817 91.5276 382.855 89.2123 378.932C87.8482 376.475 85.6758 374.567 83.0641 373.53C79.6556 372.244 75.8998 373.093 72.2983 373.53C67.1533 374.109 63.2946 372.334 58.8442 369.967C53.9436 367.395 48.2198 365.362 42.9077 366.944C41.18 367.456 39.5792 368.325 38.2089 369.496C36.8387 370.666 35.7296 372.111 34.9535 373.737C34.1774 375.363 33.7516 377.134 33.7038 378.935C33.6559 380.737 33.9871 382.528 34.6757 384.193C35.8591 387.074 38.0457 389.415 39.6535 392.09C41.2613 394.766 42.1102 397.827 40.9397 400.747C40.0394 402.908 38.3672 404.606 37.6984 406.805C35.7948 412.593 36.8623 417.738 42.6118 420.722C48.6186 423.796 58.0467 421.481 61.0565 429.031C62.1884 431.9 62.227 435.077 62.8444 438.099C64.1117 444.182 67.6485 449.554 72.7356 453.123C79.6427 457.92 89.0194 456.75 96.1838 453.406C100.585 451.328 104.446 448.259 107.464 444.44Z" fill="#080C71"/>
<path d="M53.3142 407.911C53.4547 407.935 53.5992 407.913 53.7258 407.847C58.7918 405.889 64.2286 405.076 69.6459 405.467C75.0632 405.859 80.3266 407.444 85.0586 410.111C85.2207 410.197 85.4105 410.216 85.5865 410.163C85.7625 410.11 85.9103 409.99 85.9975 409.828C86.0427 409.749 86.0716 409.661 86.0824 409.571C86.0932 409.48 86.0859 409.389 86.0607 409.301C86.0355 409.214 85.993 409.132 85.9358 409.061C85.8786 408.99 85.8077 408.932 85.7274 408.889C80.8112 406.128 75.3443 404.491 69.7198 404.095C64.0952 403.699 58.4529 404.554 53.1984 406.599C53.0748 406.667 52.9748 406.771 52.9116 406.897C52.8484 407.023 52.8251 407.165 52.8446 407.305C52.8641 407.444 52.9257 407.574 53.021 407.678C53.1164 407.782 53.241 407.854 53.3785 407.886L53.3142 407.911Z" fill="white"/>
<path d="M98.2287 444.659C98.0603 444.663 97.8972 444.6 97.7746 444.484C97.6519 444.369 97.5794 444.21 97.5727 444.042C96.3765 414.973 67.1917 384.232 47.628 375.871C47.549 375.839 47.4772 375.791 47.4168 375.73C47.3565 375.67 47.3087 375.598 47.2764 375.519C47.2441 375.44 47.2278 375.356 47.2285 375.27C47.2293 375.185 47.247 375.1 47.2807 375.022C47.3511 374.864 47.4812 374.74 47.6427 374.677C47.8041 374.615 47.9838 374.618 48.1425 374.688C68.0149 383.203 97.6499 414.458 98.8718 444.016C98.8753 444.102 98.8617 444.188 98.8319 444.269C98.802 444.35 98.7566 444.424 98.698 444.488C98.6395 444.551 98.569 444.602 98.4907 444.638C98.4124 444.674 98.3277 444.694 98.2416 444.698L98.2287 444.659Z" fill="white"/>
<path d="M259.319 29.2933L113.743 113.311C112.301 114.252 111.103 115.521 110.247 117.014C109.39 118.508 108.9 120.183 108.816 121.903V464.724C108.816 467.863 111.029 469.136 113.743 467.554L259.319 383.511C260.751 382.572 261.943 381.31 262.799 379.827C263.654 378.344 264.15 376.68 264.246 374.97V32.0973C264.246 28.9588 262.033 27.6726 259.319 29.2933ZM257.159 349.567C257.159 352.255 255.268 353.966 252.94 355.304L119.634 432.298C117.318 433.585 115.415 432.556 115.415 429.854V144.759C115.415 143.285 115.804 141.837 116.543 140.561C117.281 139.285 118.343 138.227 119.621 137.492L252.927 60.4846C253.355 60.2361 253.84 60.1047 254.335 60.1035C254.83 60.1023 255.316 60.2314 255.745 60.4778C256.174 60.7243 256.53 61.0793 256.778 61.5072C257.027 61.9352 257.158 62.4209 257.159 62.9156V349.567Z" fill="#455A64"/>
<path d="M257.158 349.567C257.158 352.255 255.267 353.966 252.939 355.304L119.633 432.298C117.318 433.585 115.414 432.556 115.414 429.854V144.759C115.415 143.285 115.804 141.837 116.542 140.561C117.28 139.285 118.342 138.227 119.62 137.492L252.926 60.4846C253.354 60.2362 253.839 60.1047 254.334 60.1035C254.829 60.1023 255.315 60.2314 255.744 60.4779C256.173 60.7243 256.53 61.0793 256.778 61.5072C257.026 61.9352 257.157 62.4209 257.158 62.9156V349.567Z" fill="#263238"/>
<path d="M119.633 432.298L252.939 355.329C253.875 354.824 254.74 354.197 255.511 353.464L115.414 274.566V429.854C115.414 432.555 117.318 433.636 119.633 432.298Z" fill="#37474F"/>
<path d="M246.366 344.564V64.2793L119.62 137.492C118.342 138.227 117.28 139.286 116.542 140.561C115.804 141.837 115.415 143.285 115.414 144.759V423.475L242.147 350.301C244.475 348.963 246.366 347.252 246.366 344.564Z" fill="#080C71"/>
<path d="M113.125 467.902C111.655 468.522 110.067 468.815 108.473 468.762C106.879 468.708 105.315 468.31 103.889 467.593L98.2556 464.339C96.8179 463.408 95.621 462.15 94.7626 460.668C93.9041 459.185 93.4086 457.521 93.3164 455.811V112.899C93.3488 111.628 93.6376 110.377 94.1653 109.22C94.3454 108.822 94.5383 108.436 94.757 108.037L110.192 117.041C109.867 117.621 109.584 118.222 109.343 118.842C108.968 119.816 108.764 120.847 108.738 121.89V464.725C108.816 467.619 110.694 468.931 113.125 467.902Z" fill="#263238"/>
<path d="M190.878 398.831C194.029 398.831 194.364 402.368 194.364 403.886C194.175 406.927 193.284 409.882 191.759 412.521C190.235 415.159 188.119 417.407 185.579 419.089C184.559 419.737 183.389 420.109 182.183 420.169C179.032 420.169 178.697 416.632 178.697 415.114C178.887 412.073 179.778 409.118 181.299 406.478C182.821 403.838 184.933 401.586 187.469 399.898C188.497 399.261 189.67 398.894 190.878 398.831Z" fill="#080C71"/>
<path d="M186.428 76.7688C187.714 75.997 188.833 76.6144 188.833 78.1579C188.786 78.9923 188.545 79.8042 188.127 80.528C187.709 81.2518 187.127 81.8675 186.428 82.3253C185.142 83.0842 184.01 82.4668 184.01 80.9362C184.054 80.0996 184.296 79.2855 184.716 78.561C185.137 77.8364 185.723 77.2221 186.428 76.7688Z" fill="#263238"/>
<path d="M170.891 97.0782C172.074 96.3965 173.026 96.9496 173.026 98.3645C172.987 99.1047 172.773 99.8251 172.402 100.467C172.031 101.108 171.513 101.653 170.891 102.056C169.708 102.738 168.756 102.185 168.756 100.77C168.797 100.03 169.012 99.3105 169.383 98.6692C169.754 98.0278 170.27 97.4829 170.891 97.0782Z" fill="#263238"/>
<path d="M178.029 92.8596L201.94 79.0583C203.226 78.2994 204.307 78.8396 204.307 80.2545C204.244 81.049 203.998 81.8181 203.587 82.5011C203.176 83.1842 202.612 83.7624 201.94 84.1903L178.029 97.9917C176.743 98.7506 175.662 98.2104 175.662 96.7955C175.725 96.001 175.971 95.2319 176.382 94.5488C176.793 93.8658 177.356 93.2875 178.029 92.8596Z" fill="#263238"/>
<path d="M264.194 31.3128C263.834 28.7403 261.789 27.8271 259.332 29.2548L113.73 113.311C112.273 114.215 111.076 115.483 110.257 116.989L94.8223 107.986C95.6542 106.491 96.854 105.234 98.308 104.333L243.82 20.2897C245.347 19.5157 247.035 19.1123 248.747 19.1123C250.459 19.1123 252.146 19.5157 253.673 20.2897L259.332 23.5311C260.651 24.406 261.768 25.5531 262.606 26.8954C263.445 28.2376 263.986 29.7439 264.194 31.3128Z" fill="#37474F"/>
<path d="M226.004 41.7185C225.248 42.1221 224.408 42.3406 223.552 42.3563C222.695 42.3719 221.847 42.1842 221.078 41.8086C220.82 41.6986 220.596 41.521 220.431 41.2946C220.266 41.0682 220.165 40.8014 220.139 40.5223C220.139 40.1622 220.139 38.8245 220.139 38.4515C220.18 38.1305 220.304 37.8256 220.497 37.5665C220.691 37.3073 220.949 37.1026 221.245 36.9723L236.847 27.9686C237.606 27.5679 238.448 27.351 239.306 27.3354C240.164 27.3197 241.013 27.5058 241.786 27.8786C242.039 27.9936 242.258 28.1729 242.42 28.3985C242.583 28.6241 242.683 28.8883 242.712 29.1648C242.712 29.5378 242.712 30.9269 242.712 31.2871C242.672 31.61 242.549 31.9169 242.355 32.1783C242.161 32.4397 241.903 32.6466 241.606 32.7791L226.004 41.7185Z" fill="#080C71"/>
<path opacity="0.25" d="M226.004 41.7185C225.248 42.1221 224.408 42.3406 223.552 42.3563C222.695 42.3719 221.847 42.1842 221.078 41.8086C220.82 41.6986 220.596 41.521 220.431 41.2946C220.266 41.0682 220.165 40.8014 220.139 40.5223C220.139 40.1622 220.139 38.8245 220.139 38.4515C220.18 38.1305 220.304 37.8256 220.497 37.5665C220.691 37.3073 220.949 37.1026 221.245 36.9723L236.847 27.9686C237.606 27.5679 238.448 27.351 239.306 27.3354C240.164 27.3197 241.013 27.5058 241.786 27.8786C242.039 27.9936 242.258 28.1729 242.42 28.3985C242.583 28.6241 242.683 28.8883 242.712 29.1648C242.712 29.5378 242.712 30.9269 242.712 31.2871C242.672 31.61 242.549 31.9169 242.355 32.1783C242.161 32.4397 241.903 32.6466 241.606 32.7791L226.004 41.7185Z" fill="black"/>
<path d="M226.004 39.6732L241.607 30.6696C243.021 29.8464 243.086 28.573 241.774 27.8141C241.001 27.4413 240.151 27.2553 239.293 27.2709C238.436 27.2866 237.593 27.5035 236.835 27.9041L221.232 36.9078C219.83 37.7182 219.753 38.9915 221.078 39.7504C221.848 40.125 222.695 40.3133 223.55 40.2998C224.406 40.2864 225.247 40.0718 226.004 39.6732Z" fill="#080C71"/>
<path opacity="0.3" d="M226.004 39.6732L241.607 30.6696C243.021 29.8464 243.086 28.573 241.774 27.8141C241.001 27.4413 240.151 27.2553 239.293 27.2709C238.436 27.2866 237.593 27.5035 236.835 27.9041L221.232 36.9078C219.83 37.7182 219.753 38.9915 221.078 39.7504C221.848 40.125 222.695 40.3133 223.55 40.2998C224.406 40.2864 225.247 40.0718 226.004 39.6732Z" fill="black"/>
<path d="M103.068 164.567C103.037 163.711 102.804 162.875 102.389 162.126C101.973 161.377 101.386 160.737 100.675 160.259C100.442 160.087 100.167 159.982 99.8783 159.958C99.59 159.933 99.3004 159.988 99.0416 160.117C98.7457 160.297 97.5624 160.953 97.2537 161.146C96.9954 161.342 96.7921 161.601 96.6636 161.898C96.5352 162.196 96.4859 162.522 96.5205 162.844V201.071C96.5516 201.925 96.7832 202.761 97.1965 203.509C97.6099 204.258 98.1934 204.898 98.9001 205.38C99.1326 205.536 99.4014 205.63 99.6807 205.653C99.9601 205.675 100.24 205.626 100.495 205.509C100.829 205.341 102.026 204.647 102.347 204.454C102.606 204.258 102.809 203.999 102.937 203.701C103.066 203.404 103.115 203.078 103.08 202.756L103.068 164.567Z" fill="#080C71"/>
<path opacity="0.3" d="M103.068 164.567C103.037 163.711 102.804 162.875 102.389 162.126C101.973 161.377 101.386 160.737 100.675 160.259C100.442 160.087 100.167 159.982 99.8783 159.958C99.59 159.933 99.3004 159.988 99.0416 160.117C98.7457 160.297 97.5624 160.953 97.2537 161.146C96.9954 161.342 96.7921 161.601 96.6636 161.898C96.5352 162.196 96.4859 162.522 96.5205 162.844V201.071C96.5516 201.925 96.7832 202.761 97.1965 203.509C97.6099 204.258 98.1934 204.898 98.9001 205.38C99.1326 205.536 99.4014 205.63 99.6807 205.653C99.9601 205.675 100.24 205.626 100.495 205.509C100.829 205.341 102.026 204.647 102.347 204.454C102.606 204.258 102.809 203.999 102.937 203.701C103.066 203.404 103.115 203.078 103.08 202.756L103.068 164.567Z" fill="black"/>
<path d="M101.293 165.635V203.862C101.293 205.483 100.226 206.177 98.901 205.419C98.1944 204.937 97.6108 204.296 97.1975 203.548C96.7841 202.799 96.5526 201.964 96.5215 201.11V162.844C96.5215 161.21 97.5891 160.516 98.901 161.275C99.6169 161.76 100.207 162.408 100.623 163.166C101.039 163.925 101.269 164.771 101.293 165.635Z" fill="#080C71"/>
<path opacity="0.4" d="M101.293 165.635V203.862C101.293 205.483 100.226 206.177 98.901 205.419C98.1944 204.937 97.6108 204.296 97.1975 203.548C96.7841 202.799 96.5526 201.964 96.5215 201.11V162.844C96.5215 161.21 97.5891 160.516 98.901 161.275C99.6169 161.76 100.207 162.408 100.623 163.166C101.039 163.925 101.269 164.771 101.293 165.635Z" fill="black"/>
<path d="M103.068 215.798C103.037 214.942 102.804 214.106 102.389 213.357C101.973 212.608 101.386 211.968 100.675 211.49C100.442 211.318 100.167 211.213 99.8783 211.188C99.59 211.164 99.3004 211.219 99.0416 211.348C98.7457 211.528 97.5624 212.184 97.2537 212.377C96.9954 212.573 96.7921 212.832 96.6636 213.129C96.5352 213.427 96.4859 213.753 96.5205 214.075V232.082C96.5536 232.935 96.7861 233.767 97.1994 234.513C97.6126 235.259 98.1952 235.898 98.9001 236.378C99.125 236.545 99.3902 236.648 99.6684 236.677C99.9465 236.707 100.227 236.661 100.482 236.546C100.817 236.378 102.013 235.684 102.334 235.491C102.592 235.297 102.794 235.04 102.923 234.745C103.051 234.45 103.101 234.126 103.068 233.806V215.798Z" fill="#080C71"/>
<path opacity="0.3" d="M103.068 215.798C103.037 214.942 102.804 214.106 102.389 213.357C101.973 212.608 101.386 211.968 100.675 211.49C100.442 211.318 100.167 211.213 99.8783 211.188C99.59 211.164 99.3004 211.219 99.0416 211.348C98.7457 211.528 97.5624 212.184 97.2537 212.377C96.9954 212.573 96.7921 212.832 96.6636 213.129C96.5352 213.427 96.4859 213.753 96.5205 214.075V232.082C96.5536 232.935 96.7861 233.767 97.1994 234.513C97.6126 235.259 98.1952 235.898 98.9001 236.378C99.125 236.545 99.3902 236.648 99.6684 236.677C99.9465 236.707 100.227 236.661 100.482 236.546C100.817 236.378 102.013 235.684 102.334 235.491C102.592 235.297 102.794 235.04 102.923 234.745C103.051 234.45 103.101 234.126 103.068 233.806V215.798Z" fill="black"/>
<path d="M101.293 216.763V234.77C101.293 236.391 100.226 237.098 98.901 236.327C98.1944 235.845 97.6108 235.204 97.1975 234.456C96.7841 233.707 96.5526 232.872 96.5215 232.018V214.01C96.5215 212.39 97.5891 211.682 98.901 212.441C99.6103 212.924 100.196 213.567 100.612 214.317C101.027 215.068 101.261 215.906 101.293 216.763Z" fill="#080C71"/>
<path opacity="0.4" d="M101.293 216.763V234.77C101.293 236.391 100.226 237.098 98.901 236.327C98.1944 235.845 97.6108 235.204 97.1975 234.456C96.7841 233.707 96.5526 232.872 96.5215 232.018V214.01C96.5215 212.39 97.5891 211.682 98.901 212.441C99.6103 212.924 100.196 213.567 100.612 214.317C101.027 215.068 101.261 215.906 101.293 216.763Z" fill="black"/>
<path d="M145.691 183.887C145.819 184.512 145.991 185.126 146.206 185.727C147.042 187.99 148.547 190.125 148.418 192.544C148.277 195.27 146.129 197.38 144.482 199.554C142.342 202.428 140.916 205.769 140.322 209.302C139.727 212.836 139.98 216.46 141.061 219.876C142.642 224.037 144.836 227.939 147.569 231.452L153.782 240.263C155.66 242.73 158.058 244.754 160.805 246.193C166.143 249.21 172.099 250.97 178.22 251.338C188.282 252.017 198.29 249.393 206.723 243.865C215.663 237.948 211.727 222.77 220.872 217.227C231.934 210.538 237.207 187.309 223.65 177.61C223.65 177.61 225.837 163.385 221.824 159.757C217.825 156.411 212.876 154.404 207.675 154.021C200.498 153.275 193.308 154.677 186.143 154.651C178.768 154.627 171.399 155.087 164.084 156.027C161.512 156.375 157.885 157.313 156.496 159.822C156.103 160.805 155.996 161.88 156.187 162.921C156.167 164.574 155.576 166.169 154.515 167.436C152.92 169.366 150.656 170.665 148.958 172.478C147.557 173.991 146.532 175.811 145.964 177.793C145.396 179.775 145.303 181.863 145.691 183.887Z" fill="#263238"/>
<path d="M217.078 204.416C228.654 204.737 230.159 207.207 240.526 217.471C249.144 225.999 277.699 252.354 277.699 252.354L311.913 261.46L303.835 282.336C303.835 282.336 296.118 282.014 280.683 282.002C271.203 282.002 267.91 279.879 258.366 273.512C253.504 270.258 226.069 252.302 226.069 252.302L217.078 204.416Z" fill="#E6E6E6"/>
<path d="M349.767 219.246L287.062 241.343L269.775 315.945L271.177 317.437L330.795 295.198L351.156 220.738L349.767 219.246Z" fill="#080C71"/>
<path opacity="0.35" d="M288.452 242.835L271.177 317.437L269.775 315.945L287.062 241.343L288.452 242.835Z" fill="black"/>
<path opacity="0.25" d="M351.154 220.738L288.45 242.835L271.176 317.437L330.793 295.198L351.154 220.738Z" fill="black"/>
<g opacity="0.2">
<path d="M321.469 280.02C322.048 281.487 326.858 284.715 333.817 284.136L334.987 279.84L321.469 280.02Z" fill="black"/>
</g>
<g opacity="0.1">
<path d="M332.273 236.018L332.788 233.51C333.07 232.134 329.392 232.854 324.568 235.131L313.25 238.552C308.426 240.829 303.873 242.527 303.577 243.903L303.062 246.398L332.273 236.018Z" fill="black"/>
</g>
<path d="M336.004 224.7C336.184 223.838 334.718 224.018 332.75 224.545L329.135 225.767C329.135 225.767 330.615 222.14 322.061 224.481C312.659 227.053 312.453 231.722 312.453 231.722C310.982 232.36 309.474 232.91 307.938 233.369C304.813 234.385 304.478 234.989 304.221 235.864L303.758 237.446L335.721 226.204C335.721 226.204 335.875 225.561 336.004 224.7Z" fill="#37474F"/>
<path d="M332.634 229.497C329.675 230.783 328.453 231.491 328.003 233.626C327.502 236.057 327.399 237.073 327.399 237.073L310.755 243.633C310.755 243.633 311.655 240.044 311.874 238.848C312.092 237.652 309.893 237.652 307.012 238.977L307.693 235.992L333.585 226.384L332.634 229.497Z" fill="#37474F"/>
<path d="M333.121 236.057C333.121 236.057 333.366 234.938 333.649 233.549C333.932 232.16 330.253 232.893 325.43 235.17L314.111 238.591C309.287 240.868 304.721 242.565 304.438 243.942L303.924 246.514L333.121 236.057Z" fill="#37474F"/>
<path d="M344.185 246.257C344.185 246.257 341.959 254.437 341.368 256.547C340.776 258.656 330.512 263.351 325.38 263.994C315.553 265.216 314.434 267.338 316.788 274.284C318.974 280.715 325.367 283.159 334.242 282.117C338.409 281.628 344.159 277.937 346.423 271.493C349.304 263.261 347.709 254.476 348.905 249.627C350.101 244.778 346.68 243.388 344.185 246.257Z" fill="#FFA8A7"/>
<path d="M247.021 358.751L240.371 362.61L237.58 364.218L200.999 385.325L196.009 388.155L187.584 393.017L190.156 366.765L195.07 315.932V315.405L195.301 313.128L201.733 246.668L204.549 217.586L205.54 207.155L205.874 203.785H206.054C209.033 202.956 212.182 202.956 215.161 203.785C215.825 203.986 216.471 204.245 217.09 204.557C220.949 206.473 223.522 210.203 225.657 214.126C226.182 215.082 226.654 216.065 227.072 217.072C228.657 220.884 229.881 224.838 230.724 228.88C232.409 236.34 234.583 243.967 235.445 255.994C235.581 259.089 235.417 262.19 234.956 265.254C234.377 273.362 234.278 281.497 234.66 289.616C235.741 308.009 240.371 316.344 247.021 358.751Z" fill="#E0E0E0"/>
<path d="M237.581 364.192L201 385.299L196.009 388.155L187.585 393.017L181.784 396.361L146.566 416.684C146.939 402.535 147.107 387.19 146.772 372.694C146.669 367.845 146.631 362.893 146.837 357.825C147.505 340.23 150.85 321.36 162.837 301.501L163.39 300.498C164.805 308.897 177.668 314.35 189.244 315.637L190.53 315.752C191.984 315.894 193.488 315.958 195.045 315.958H196.022C205.811 315.868 217.4 313.566 230.751 309.051C232.037 316.511 233.323 326.3 234.7 337.747C235.317 342.892 235.943 348.376 236.578 354.198C236.835 357.452 237.234 360.784 237.581 364.192Z" fill="#FFA8A7"/>
<path d="M240.373 362.584L237.582 364.192L201.001 385.299L196.011 388.155L187.586 393.017L181.785 396.361L146.568 416.684L142.709 418.909C142.902 403.68 143.031 388.759 143.018 379.395C143.018 370.688 143.211 362.944 143.687 356.076C144.625 342.519 146.581 332.319 149.848 324.602C153.681 316.155 158.216 308.045 163.405 300.356C163.405 300.356 166.62 311.212 190.673 312.923H190.827C192.242 313.025 193.734 313.09 195.303 313.115H197.13C227.074 313.115 230.379 305.565 230.379 305.565C233.304 316.668 235.619 327.922 237.312 339.278C237.947 343.291 238.56 347.578 239.151 352.14C239.589 355.484 240 358.957 240.373 362.584Z" fill="#080C71"/>
<path opacity="0.4" d="M240.373 362.584L237.582 364.192L201.001 385.299L196.011 388.155L187.586 393.017L181.785 396.361L146.568 416.684L142.709 418.909C142.902 403.68 143.031 388.759 143.018 379.395C143.018 370.688 143.211 362.944 143.687 356.076C144.625 342.519 146.581 332.319 149.848 324.602C153.681 316.155 158.216 308.045 163.405 300.356C163.405 300.356 166.62 311.212 190.673 312.923H190.827C192.242 313.025 193.734 313.09 195.303 313.115H197.13C227.074 313.115 230.379 305.565 230.379 305.565C233.304 316.668 235.619 327.922 237.312 339.278C237.947 343.291 238.56 347.578 239.151 352.14C239.589 355.484 240 358.957 240.373 362.584Z" fill="black"/>
<path opacity="0.2" d="M223.201 345.516C223.201 345.516 219.857 356.14 205.785 362.096L205.116 365.35L201 385.3L196.01 388.155L198.994 366.147L200.28 356.578C208.976 355.676 217.084 351.763 223.201 345.516Z" fill="black"/>
<path d="M180.408 206.859L166.259 208.351C156.895 210.641 152.664 214.783 151.699 223.053C151.249 226.912 148.921 237.202 152.188 250.064C155.146 261.743 163.044 290.324 163.044 290.324C163.044 290.324 144.869 314.042 141.576 354.713C174.838 376.425 225.864 364.758 239.665 351.639C238.507 339.214 230.571 305.115 229.581 294.041C229.581 294.041 230.314 276.741 231.69 269.242C242.212 257.756 240.874 246.771 236.153 237.909C227.433 221.548 214.287 207.168 210.03 207.181L180.408 206.859Z" fill="#080C71"/>
<path opacity="0.7" d="M180.408 206.859L166.259 208.351C156.895 210.641 152.664 214.783 151.699 223.053C151.249 226.912 148.921 237.202 152.188 250.064C155.146 261.743 163.044 290.324 163.044 290.324C163.044 290.324 144.869 314.042 141.576 354.713C174.838 376.425 225.864 364.758 239.665 351.639C238.507 339.214 230.571 305.115 229.581 294.041C229.581 294.041 230.314 276.741 231.69 269.242C242.212 257.756 240.874 246.771 236.153 237.909C227.433 221.548 214.287 207.168 210.03 207.181L180.408 206.859Z" fill="white"/>
<path d="M192.666 295.417C192.666 295.674 192.666 295.906 192.666 296.099V296.433C192.675 296.54 192.675 296.648 192.666 296.755C192.178 301.9 191.599 307.366 190.981 312.936C190.981 312.936 190.981 312.936 190.981 313.013C190.891 313.913 190.789 314.814 190.686 315.727C188.795 332.512 186.544 350.455 184.807 366.791C184.383 370.752 183.997 374.611 183.65 378.367C183.11 383.988 182.531 390.149 181.939 396.374L146.722 416.697L142.863 418.922L133.023 424.594C135.004 405.108 139.622 359.961 142.194 339.587C142.49 337.284 142.876 334.982 143.313 332.692L143.661 331.02L143.815 330.338C143.982 329.567 144.149 328.821 144.329 328.062C144.51 327.303 144.677 326.66 144.844 325.978C145.243 324.422 145.667 322.891 146.13 321.399C146.349 320.679 146.555 319.959 146.786 319.251C147.018 318.544 147.211 317.836 147.442 317.142C147.905 315.753 148.355 314.389 148.831 313.064C148.826 313.039 148.826 313.013 148.831 312.987C149.05 312.357 149.282 311.701 149.513 311.109C149.822 310.235 150.143 309.386 150.465 308.537L150.851 307.521C151.044 307.058 151.211 306.607 151.391 306.157C152.021 304.575 152.677 303.07 153.256 301.668C153.385 301.36 153.526 301.051 153.655 300.755C153.783 300.459 153.989 300.022 154.144 299.662C154.529 298.761 154.915 297.925 155.288 297.089C155.443 296.729 155.61 296.382 155.764 296.047C155.919 295.713 156.137 295.276 156.304 294.915L156.549 294.401L156.806 293.899C156.823 293.834 156.854 293.772 156.896 293.719C156.931 293.626 156.974 293.535 157.025 293.449C157.056 293.392 157.082 293.331 157.102 293.269C157.209 293.087 157.303 292.898 157.385 292.703L158.247 291.031C158.247 290.941 158.337 290.877 158.362 290.799L158.697 290.182L147.995 245.807L142.67 223.761V223.4C142.915 221.445 144.548 212.223 153.963 209.419C159.279 208.047 164.724 207.236 170.209 207.001C172.318 206.872 174.222 206.821 175.778 206.782H178.235H179.714C179.717 206.812 179.717 206.842 179.714 206.872C179.791 207.065 180.01 207.644 180.344 208.544C180.38 208.695 180.432 208.842 180.499 208.982C180.5 209.003 180.5 209.025 180.499 209.046C182.814 215.4 189.309 233.896 192.538 249.961C193.104 252.74 193.567 255.454 193.901 258.026C194.866 266.065 194.158 279.519 192.666 295.417Z" fill="#FAFAFA"/>
<path d="M159.044 268.933C159.044 268.933 160.33 262.592 162.221 248.893C164.42 233.098 163.636 225.291 161.256 220.3L147.841 245.884L158.542 290.259C158.542 290.259 147.545 310.401 143.107 332.705C153.629 302.98 165.141 294.118 165.141 294.118L159.044 268.933Z" fill="#E6E6E6"/>
<path d="M206.041 196.955C210.208 196.955 210.697 197.65 214.286 202.46C216.421 205.329 229.939 227.645 229.939 227.645C229.939 227.645 219.186 213.496 211.07 209.2C209.508 208.284 207.817 207.608 206.054 207.194L206.041 196.955Z" fill="#EBEBEB"/>
<path d="M175.224 244.379C175.224 243.092 175.095 240.314 174.876 236.816C173.809 219.657 173.294 204.222 179.082 202.936L179.584 205.303C175.365 206.216 176.754 228.301 177.282 236.61C177.513 240.186 177.693 243.041 177.629 244.43L175.224 244.379Z" fill="#080C71"/>
<path d="M155.93 132.039L164.933 139.409C165.423 138.849 165.793 138.194 166.021 137.486C166.248 136.778 166.329 136.031 166.258 135.29C166.187 134.55 165.966 133.831 165.607 133.179C165.249 132.527 164.762 131.955 164.174 131.498C162.991 130.519 161.478 130.03 159.945 130.131C158.412 130.231 156.976 130.914 155.93 132.039Z" fill="#263238"/>
<path d="M179.443 198.048C179.443 192.402 166.284 183.9 159.493 172.028C152.702 160.156 156.097 140.631 165.41 137.634C165.487 137.634 165.744 135.126 165.783 134.946C166.298 132.68 167.166 130.51 168.355 128.514C172.15 121.98 180.189 116.938 187.649 115.883C217.142 111.587 230.699 123.048 236.114 135.653C237.87 139.893 238.652 144.473 238.404 149.056C238.252 152.421 237.003 155.645 234.848 158.234C232.693 160.824 229.75 162.637 226.468 163.397L179.443 198.048Z" fill="#263238"/>
<path d="M220.358 131.434C226.133 134.007 231.625 142.792 231.535 167.513C231.458 188.479 225.027 193.778 221.785 195.335C218.544 196.891 212.203 196.093 206.042 195.154V207.194C206.042 207.194 210.659 211.734 209.039 214.59C207.418 217.445 201.437 219.863 192.137 216.943C181.603 213.638 179.198 206.653 179.198 206.653L178.953 180.234C178.953 180.234 175.416 183.951 169.178 178.498C164.033 173.983 162.181 166.253 166.052 162.008C169.924 157.763 174.889 157.429 179.365 162.175L182.581 160.477C188.317 159.809 196.729 158.844 202.929 155.718C218.827 147.628 220.473 138.856 220.358 131.434Z" fill="#FFA8A7"/>
<path d="M179.455 158.754L179.532 170.33C180.276 170.35 181.015 170.217 181.706 169.941C182.396 169.664 183.022 169.249 183.546 168.721C184.07 168.194 184.481 167.564 184.753 166.872C185.025 166.18 185.152 165.44 185.127 164.696C185.113 163.171 184.519 161.707 183.466 160.604C182.412 159.5 180.978 158.839 179.455 158.754Z" fill="#263238"/>
<path d="M220.898 160.4C220.904 160.944 221.069 161.475 221.373 161.926C221.677 162.377 222.107 162.729 222.609 162.938C223.111 163.147 223.663 163.204 224.198 163.102C224.732 163 225.224 162.743 225.614 162.364C226.004 161.984 226.274 161.499 226.39 160.968C226.507 160.436 226.465 159.883 226.269 159.375C226.074 158.867 225.734 158.428 225.291 158.112C224.849 157.796 224.323 157.617 223.78 157.596C223.405 157.588 223.033 157.654 222.685 157.791C222.337 157.928 222.019 158.133 221.751 158.394C221.482 158.655 221.269 158.967 221.123 159.311C220.976 159.656 220.9 160.026 220.898 160.4Z" fill="black"/>
<path d="M198.71 161.635C198.687 162.034 198.744 162.433 198.876 162.81C199.008 163.187 199.213 163.534 199.479 163.832C199.746 164.129 200.068 164.371 200.429 164.544C200.789 164.716 201.179 164.816 201.578 164.838C201.983 164.841 202.384 164.765 202.76 164.612C203.135 164.46 203.476 164.235 203.764 163.951C204.052 163.667 204.281 163.328 204.438 162.955C204.595 162.582 204.676 162.181 204.678 161.776C204.691 161.385 204.626 160.994 204.488 160.627C204.35 160.26 204.14 159.924 203.872 159.638C203.604 159.352 203.282 159.122 202.925 158.96C202.568 158.798 202.182 158.709 201.79 158.696C201.399 158.683 201.008 158.748 200.641 158.886C200.274 159.024 199.938 159.234 199.652 159.502C199.366 159.77 199.136 160.092 198.974 160.449C198.812 160.806 198.723 161.192 198.71 161.584V161.635Z" fill="black"/>
<path d="M228.254 155.217L221.09 152.374C221.256 151.892 221.519 151.449 221.864 151.074C222.208 150.698 222.627 150.398 223.093 150.192C223.559 149.985 224.062 149.877 224.572 149.874C225.082 149.871 225.586 149.973 226.055 150.175C226.999 150.572 227.754 151.317 228.163 152.256C228.573 153.194 228.605 154.255 228.254 155.217Z" fill="black"/>
<path d="M214.106 158.136L213.746 175.295L222.968 173.25L214.106 158.136Z" fill="#F28F8F"/>
<path d="M203.237 178.793L212.241 181.585C212.11 182.198 211.854 182.779 211.489 183.29C211.125 183.8 210.659 184.231 210.121 184.554C209.583 184.877 208.984 185.086 208.362 185.169C207.74 185.251 207.107 185.204 206.504 185.032C205.268 184.602 204.243 183.718 203.636 182.559C203.029 181.4 202.886 180.054 203.237 178.793Z" fill="#B16668"/>
<path d="M208.215 185.186C208.205 183.934 207.7 182.737 206.811 181.855C205.922 180.973 204.721 180.478 203.469 180.478C203.344 180.472 203.22 180.472 203.096 180.478C203.142 181.483 203.489 182.451 204.092 183.256C204.696 184.061 205.527 184.667 206.479 184.993C207.038 185.177 207.629 185.243 208.215 185.186Z" fill="#F28F8F"/>
<path d="M206.041 195.219C199.546 194.447 186.156 190.717 183.982 185.276C184.853 188.007 186.525 190.414 188.78 192.183C192.819 195.656 206.041 199.271 206.041 199.271V195.219Z" fill="#F28F8F"/>
<path d="M179.133 197.019C177.435 196.672 175.93 197.418 174.541 199.759C173.152 202.1 170.104 207.091 170.104 207.091C170.104 207.091 168.521 223.542 170.104 227.67C171.467 231.22 186.503 244.533 186.503 244.533C186.503 244.533 182.58 259.312 182.439 264.161C182.297 269.01 191.442 287.416 192.548 296.832C192.548 296.832 195.803 267.248 194.401 256.585C191.982 238.102 183.313 214.229 179.223 206.64L179.133 197.019Z" fill="#EBEBEB"/>
<path d="M188.331 258.244C187.327 255.856 186.145 253.547 184.793 251.337C182.658 247.8 180.021 244.404 177.642 243.53C177.281 243.387 176.898 243.308 176.51 243.298H176.381C175.99 243.32 175.606 243.416 175.25 243.581C173.372 244.417 171.391 246.977 169.783 249.922C168.136 252.88 166.78 255.99 165.731 259.209C165.114 261.203 165.384 265.435 166.117 270.271C167.558 279.66 170.761 291.391 172.548 293.706C173.859 295.324 175.407 296.733 177.14 297.886C176.079 298.588 174.934 299.154 173.732 299.571C173.052 299.819 172.333 299.946 171.609 299.944V301.629H171.815C172.58 301.617 173.338 301.492 174.066 301.256C175.752 300.709 177.344 299.907 178.787 298.877C180.309 299.783 181.962 300.451 183.687 300.858C184.5 301.052 185.34 301.105 186.17 301.012L185.964 299.34C185.244 299.401 184.518 299.344 183.816 299.173C182.579 298.85 181.386 298.375 180.266 297.758C181.898 296.458 183.329 294.924 184.51 293.204C185.514 291.674 186.749 286.4 187.675 280.342C188.241 276.728 188.704 272.843 188.961 269.306C189.244 264.367 189.115 260.135 188.331 258.244ZM183.018 292.278C181.812 294.019 180.33 295.553 178.632 296.819C176.828 295.705 175.221 294.301 173.873 292.664C172.201 290.491 169.114 279.043 167.725 270.014C167.018 265.447 166.76 261.499 167.326 259.724C168.375 256.466 169.763 253.327 171.468 250.36C173.243 247.299 175.134 245.048 176.446 244.996C178.002 244.996 180.523 247.813 182.877 251.427C183.353 252.135 183.803 252.907 184.24 253.678C185.2 255.34 186.059 257.058 186.813 258.823C187.52 260.573 187.597 264.521 187.276 269.113C187.096 271.686 186.813 274.374 186.453 277.049C185.475 284.034 184.099 290.581 183.018 292.24V292.278Z" fill="#455A64"/>
<path d="M188.471 300.022C188.491 300.513 188.365 300.999 188.108 301.418C187.852 301.837 187.477 302.171 187.031 302.377C186.585 302.583 186.088 302.652 185.602 302.575C185.117 302.498 184.665 302.279 184.305 301.945C183.944 301.612 183.69 301.179 183.576 300.701C183.462 300.223 183.492 299.722 183.662 299.261C183.833 298.8 184.137 298.4 184.535 298.112C184.933 297.824 185.407 297.661 185.898 297.642C186.555 297.618 187.194 297.855 187.676 298.301C188.158 298.747 188.444 299.366 188.471 300.022Z" fill="#263238"/>
<path d="M174.052 300.691C174.075 301.182 173.951 301.669 173.696 302.09C173.441 302.511 173.068 302.846 172.622 303.054C172.176 303.262 171.678 303.333 171.192 303.258C170.706 303.183 170.254 302.965 169.892 302.632C169.53 302.299 169.275 301.866 169.159 301.387C169.044 300.909 169.073 300.408 169.243 299.946C169.413 299.484 169.717 299.084 170.115 298.795C170.513 298.506 170.988 298.342 171.48 298.324C171.804 298.31 172.128 298.361 172.433 298.472C172.738 298.584 173.018 298.754 173.257 298.974C173.496 299.194 173.689 299.459 173.825 299.753C173.962 300.048 174.039 300.366 174.052 300.691Z" fill="#263238"/>
<path d="M188.755 269.281L187.327 269.178C187.182 269.165 187.047 269.096 186.951 268.986C186.855 268.875 186.806 268.732 186.813 268.586C187.109 263.866 186.954 260.393 186.375 259.004C183.88 252.907 178.658 245.267 176.458 245.357C174.259 245.447 169.706 253.511 167.725 259.788C167.275 261.229 167.416 264.702 168.098 269.384C168.12 269.527 168.086 269.673 168.002 269.791C167.917 269.909 167.79 269.989 167.648 270.014L166.233 270.233C166.085 270.251 165.935 270.21 165.817 270.118C165.699 270.026 165.622 269.892 165.603 269.744C164.818 264.496 164.728 260.894 165.32 259.029C166.374 255.659 171.352 243.041 176.356 242.836C181.359 242.63 187.392 254.772 188.729 258.052C189.462 259.853 189.681 263.454 189.347 268.74C189.337 268.889 189.27 269.029 189.159 269.13C189.049 269.23 188.904 269.284 188.755 269.281Z" fill="#080C71"/>
<path d="M157.911 209.251C148.496 209.097 144.148 212.274 138.18 220.262C133.447 226.603 115.028 260.868 108.918 270.875L75.6558 253.099C68.9288 248.456 66.7551 241.124 62.4976 236.841C58.2401 232.558 53.8283 231.696 49.1464 228.159C44.4645 224.622 42.5609 221.869 41.2103 225.175C39.8598 228.481 45.069 233.832 46.0594 235.156C47.0498 236.481 52.272 239.427 45.4935 239.53C38.715 239.632 25.2995 232.61 22.0325 231.362C18.7654 230.114 18.9583 234.012 20.5661 236.507C22.1739 239.002 22.0968 246.051 24.8107 250.128C27.6791 254.45 29.2483 256.328 35.6409 259.132C41.5833 261.704 54.0599 262.733 60.3753 266.682C66.6907 270.631 82.3443 284.548 91.8625 292.896C103.966 303.507 112.314 305.449 119.054 299.083C125.601 292.227 132.238 284.188 135.479 280.11C144.212 269.113 158.027 244.096 158.027 244.096C158.027 244.096 164.008 231.233 157.911 209.251Z" fill="#FFA8A7"/>
<path d="M159.21 208.312C145.344 208.312 141.203 213.329 134.103 224.918C127.003 236.507 108.789 269.679 108.789 269.679L82.563 255.942C82.563 255.942 77.8425 266.335 72.8262 277.049C72.8262 277.049 87.6694 289.912 94.6923 295.996C101.715 302.079 111.028 306.851 119.658 299.404C128.881 291.455 158.786 250.154 158.786 250.154C165.886 237.266 164.304 217.728 159.21 208.312Z" fill="#F0F0F0"/>
<path d="M108.789 269.679C113.072 274.721 118.256 280.394 118.024 284.857C118.024 284.857 120.957 280.895 110.654 266.296L108.789 269.679Z" fill="#E0E0E0"/>
<path d="M59.1796 145.981L48.4523 152.129L48.4909 139.807L40.4648 135.177L21.75 145.981V167.59L3.03516 178.394V200.003L11.0613 204.634L21.75 198.46V210.821L29.7761 215.451L48.4909 204.634V183.025L67.2057 172.22V150.612L59.1796 145.981Z" fill="#080C71"/>
<path d="M11.0605 183.025V204.634L29.7754 193.829V215.451L48.4902 204.634V183.025L67.205 172.22V150.612L48.4258 161.455L48.4902 139.807L29.7754 150.612V172.22L11.0605 183.025Z" fill="#080C71"/>
<g opacity="0.2">
<path d="M11.0613 204.633L3.03516 200.003V178.394L11.0613 183.025V204.633Z" fill="black"/>
<path d="M29.7761 150.611L21.75 145.981V167.59L29.7761 172.22V150.611Z" fill="black"/>
<path d="M29.7761 215.451L21.75 210.82V198.46L29.7761 193.829V215.451Z" fill="black"/>
</g>
<g opacity="0.5">
<path d="M29.7761 172.22L21.75 167.59L3.03516 178.394L11.0613 183.025L29.7761 172.22Z" fill="white"/>
<path d="M48.4909 139.807L40.4648 135.177L21.75 145.981L29.7761 150.612L48.4909 139.807Z" fill="white"/>
<path d="M67.2049 150.611L59.1788 145.981L48.4515 152.129L48.4258 161.454L67.2049 150.611Z" fill="white"/>
</g>
<path d="M367.002 102.609C366.663 102.315 366.297 102.052 365.909 101.824C364.546 101.014 358.372 97.464 358.05 97.271C354.783 95.1873 349.612 95.6504 345.008 97.9785C338.409 101.31 332.917 108.346 328.724 120.063C328.724 120.063 324.479 117.015 323.103 116.205C319.694 114.339 315.707 115.24 311.218 118.16C306.163 121.452 302.716 125.723 299.565 132.18V132.295C296.834 137.778 295.341 143.794 295.191 149.917C295.191 163.461 300.735 169.918 307.951 174.767C310.009 176.156 315.45 179.076 315.99 179.436C320.345 182.311 325.161 184.417 330.229 185.662L337.342 187.321L344.454 177.455C349.633 170.181 354.387 162.614 358.693 154.792C365.909 141.608 371.556 128.694 371.453 115.201C371.35 109.426 369.691 105.181 367.002 102.609Z" fill="#080C71"/>
<path opacity="0.3" d="M367.002 102.609C366.663 102.315 366.297 102.052 365.909 101.824C364.546 101.014 358.372 97.464 358.05 97.271C354.783 95.1873 349.612 95.6504 345.008 97.9785C338.409 101.31 332.917 108.346 328.724 120.063C328.724 120.063 324.479 117.015 323.103 116.205C319.694 114.339 315.707 115.24 311.218 118.16C306.163 121.452 302.716 125.723 299.565 132.18V132.295C296.834 137.778 295.341 143.794 295.191 149.917C295.191 163.461 300.735 169.918 307.951 174.767C310.009 176.156 315.45 179.076 315.99 179.436C320.345 182.311 325.161 184.417 330.229 185.662L337.342 187.321L344.454 177.455C349.633 170.181 354.387 162.614 358.693 154.792C365.909 141.608 371.556 128.694 371.453 115.201C371.35 109.426 369.691 105.181 367.002 102.609Z" fill="black"/>
<path d="M367.001 102.609C366.662 102.315 366.296 102.052 365.908 101.824C364.545 101.014 358.371 97.464 358.049 97.271C354.782 95.1873 349.611 95.6504 345.007 97.9785C338.408 101.31 332.916 108.346 328.723 120.063C328.723 120.063 324.478 117.015 323.102 116.205C319.693 114.339 315.706 115.24 311.217 118.16C306.162 121.452 302.715 125.723 299.564 132.18V132.295C299.422 132.578 299.306 132.861 299.178 133.144L353.2 164.297C355.116 161.184 356.981 158.033 358.756 154.792C365.972 141.608 371.619 128.694 371.516 115.201C371.349 109.426 369.689 105.181 367.001 102.609Z" fill="#080C71"/>
<path opacity="0.15" d="M367.001 102.609C366.662 102.315 366.296 102.052 365.908 101.824C364.545 101.014 358.371 97.464 358.049 97.271C354.782 95.1873 349.611 95.6504 345.007 97.9785C338.408 101.31 332.916 108.346 328.723 120.063C328.723 120.063 324.478 117.015 323.102 116.205C319.693 114.339 315.706 115.24 311.217 118.16C306.162 121.452 302.715 125.723 299.564 132.18V132.295C299.422 132.578 299.306 132.861 299.178 133.144L353.2 164.297C355.116 161.184 356.981 158.033 358.756 154.792C365.972 141.608 371.619 128.694 371.516 115.201C371.349 109.426 369.689 105.181 367.001 102.609Z" fill="black"/>
<path d="M328.686 120.012L335.914 129.44L347.568 115.651L334.396 108.05C332.051 111.811 330.135 115.823 328.686 120.012Z" fill="#080C71"/>
<path opacity="0.3" d="M328.686 120.012L335.914 129.44L347.568 115.651L334.396 108.05C332.051 111.811 330.135 115.823 328.686 120.012Z" fill="black"/>
<path d="M367.002 102.609C363.851 99.7921 358.114 100.036 353.046 102.609C346.139 106.108 340.428 113.658 336.158 126.443C331.887 118.597 326.177 118.353 319.269 122.842C314.202 126.134 310.755 130.405 307.616 136.862L307.552 136.977C304.831 142.468 303.343 148.486 303.191 154.612C303.191 168.156 308.748 174.613 315.951 179.462C320.306 182.337 325.122 184.443 330.19 185.687L337.303 187.347L344.415 177.481C349.594 170.207 354.348 162.64 358.654 154.817C365.87 141.633 371.517 128.72 371.414 115.227C371.349 109.426 369.69 105.181 367.002 102.609Z" fill="#080C71"/>
<g opacity="0.07">
<path d="M360.932 101.323C362.915 101.232 364.864 101.858 366.424 103.085C366.451 103.14 366.491 103.189 366.54 103.226C369.189 105.645 370.669 109.941 370.681 115.291C370.681 129.376 364.25 143.048 358.012 154.547C353.738 162.344 349.014 169.886 343.863 177.134L337.033 186.639L330.384 185.083C325.391 183.857 320.645 181.786 316.351 178.96C309.919 174.587 303.848 168.67 303.9 154.676C304.036 148.658 305.48 142.742 308.132 137.338V137.222C311.296 130.726 314.704 126.623 319.541 123.485C321.787 121.819 324.467 120.836 327.258 120.655C330.525 120.655 333.213 122.674 335.477 126.829C335.533 126.94 335.62 127.033 335.727 127.097C335.834 127.161 335.957 127.193 336.082 127.189H336.146C336.279 127.177 336.405 127.127 336.51 127.044C336.615 126.962 336.694 126.852 336.738 126.726C340.815 114.52 346.23 106.854 353.279 103.291C355.632 102.058 358.237 101.385 360.893 101.323M360.893 100.641C358.131 100.698 355.419 101.394 352.97 102.673C346.063 106.172 340.352 113.722 336.082 126.507C333.612 121.954 330.654 119.96 327.258 119.96C324.344 120.152 321.545 121.174 319.193 122.906C314.125 126.199 310.678 130.469 307.54 136.926L307.476 137.042C304.755 142.532 303.266 148.55 303.115 154.676C303.115 168.22 308.672 174.677 315.875 179.526C320.229 182.402 325.046 184.507 330.113 185.752L337.226 187.411L344.339 177.545C349.518 170.271 354.272 162.704 358.578 154.882C365.794 141.698 371.44 128.784 371.337 115.291C371.337 109.49 369.653 105.182 366.964 102.712C365.267 101.329 363.119 100.619 360.932 100.718L360.893 100.641Z" fill="black"/>
</g>
<path d="M366.218 139.074L352.378 147.074L347.233 128.359C347.16 128.076 346.993 127.827 346.759 127.651C346.526 127.476 346.239 127.385 345.947 127.395C345.646 127.389 345.353 127.488 345.118 127.676C344.883 127.864 344.721 128.129 344.661 128.424L336.648 165.03L329.908 146.585C329.894 146.244 329.745 145.923 329.494 145.691C329.244 145.459 328.911 145.337 328.57 145.351C328.229 145.364 327.907 145.513 327.675 145.764C327.444 146.015 327.321 146.347 327.335 146.688L322.782 162.856L307.553 171.654C308.054 172.383 308.595 173.082 309.173 173.751L324.608 164.863C324.907 164.69 325.128 164.409 325.226 164.078L328.814 151.319L335.721 170.175C335.813 170.439 335.988 170.666 336.22 170.821C336.452 170.977 336.729 171.052 337.008 171.037C337.293 171.023 337.565 170.914 337.782 170.727C337.999 170.541 338.147 170.288 338.204 170.008L346.05 134.225L350.192 149.415C350.241 149.611 350.335 149.792 350.467 149.944C350.599 150.096 350.765 150.215 350.952 150.292C351.138 150.368 351.34 150.399 351.541 150.383C351.742 150.367 351.936 150.305 352.108 150.2L364.405 143.113C365.112 141.762 365.678 140.424 366.218 139.074Z" fill="white"/>
<path d="M424.306 483.066C423.779 484.81 423.734 486.663 424.177 488.43C424.692 489.51 427.907 493.06 434.467 494.347C441.027 495.633 450.044 494.347 453.928 494.115C457.813 493.884 470.006 495.401 473.878 495.89C479.974 496.713 484.656 495.376 486.933 493.176C487.302 492.734 487.573 492.219 487.731 491.665C487.888 491.111 487.927 490.531 487.846 489.961C487.833 488.493 487.617 487.034 487.203 485.626L424.306 483.066Z" fill="#263238"/>
<path d="M486.199 479.246C486.315 479.748 486.431 480.262 486.534 480.777C487.127 483.365 487.314 486.029 487.087 488.674C486.302 490.604 484.154 491.671 482.418 492.212C477.826 493.678 474.34 493.498 469.259 492.482C464.15 491.737 458.987 491.419 453.825 491.53C449.824 491.8 444.319 492.572 440.319 492.199C436.917 492.057 433.561 491.371 430.376 490.166C427.714 489.035 424.987 487.594 424.331 484.816C423.546 479.028 425.977 476.481 428.717 474.86C431.457 473.24 435.354 473.368 439.521 473.098C443.29 472.841 446.043 472.841 449.4 472.584C452.302 472.442 455.186 472.042 458.018 471.387C460.59 470.59 463.163 467.361 464.217 467.246C464.217 467.246 481.003 467.117 482.598 467.246C484.45 467.4 485.016 473.137 485.247 474.384C485.427 475.362 485.466 476.417 485.723 477.356C485.89 477.986 486.045 478.616 486.199 479.246Z" fill="#37474F"/>
<path d="M434.481 491.427C433.953 487.26 433.194 478.23 440.912 473.008H441.876C438.41 472.005 434.731 472.005 431.265 473.008C425.13 474.642 422.403 479.606 423.933 484.854C423.959 484.803 425.323 489.884 434.481 491.427Z" fill="#FAFAFA"/>
<path d="M456.873 471.683C454.39 473.883 453.528 478.886 453.528 478.886C453.207 480.764 449.811 481.047 450.133 479.234C450.651 476.74 451.652 474.372 453.078 472.262C454.242 471.648 455.579 471.444 456.873 471.683Z" fill="#FAFAFA"/>
<path d="M449.915 472.545C448.043 474.378 446.819 476.771 446.429 479.362C446.082 481.163 443.252 481.137 443.458 479.362C443.458 479.362 443.78 474.924 446.429 472.853C446.942 472.525 447.527 472.325 448.134 472.272C448.741 472.218 449.352 472.312 449.915 472.545Z" fill="#FAFAFA"/>
<path d="M483.112 455.039C483.112 455.039 482.662 465.831 482.07 469.368C481.71 471.477 478.944 473.69 472.063 473.458C467.227 473.291 463.42 473.69 463.612 469.908L464.037 458.885L483.112 455.039Z" fill="#FFA8A7"/>
<path d="M493.905 429.546C493.66 432.491 493.261 435.154 494.47 438.395C496.194 443.051 499.847 445.187 501.995 447.013C504.255 449.252 506.34 451.66 508.233 454.216C510.343 456.788 510.896 458.319 514.06 461.123C515.637 462.337 517.502 463.121 519.472 463.398C521.442 463.676 523.451 463.437 525.302 462.705C528.041 461.535 528.993 460.609 528.826 456.403C528.659 452.197 515.256 450.769 515.256 450.769L493.905 429.546Z" fill="#263238"/>
<path d="M527.09 443.874C528.235 444.286 528.518 446.357 528.698 450.473C528.826 453.586 530.203 458.19 525.688 460.107C522.048 461.689 516.234 460.634 513.777 457.702C510.716 454.036 508.632 450.807 504.259 446.344C500.4 442.485 496.542 441.199 494.831 433.417C493.738 428.427 494.599 426.369 498.124 424.941C502.973 422.973 510.574 429.391 514.382 430.408C517.649 431.269 525.945 443.463 527.09 443.874Z" fill="#37474F"/>
<path d="M514.382 430.408L513.739 430.189C511.57 430.27 509.46 430.917 507.619 432.065C505.778 433.214 504.269 434.824 503.243 436.736C502.6 438.086 504.529 439.141 505.815 438.087C508.517 432.942 514.073 431.835 516.298 431.591C515.751 431.065 515.097 430.662 514.382 430.408Z" fill="#FAFAFA"/>
<path d="M517.507 432.749C515.471 432.939 513.515 433.633 511.813 434.766C510.111 435.9 508.718 437.439 507.758 439.244C507.114 440.53 509.108 441.649 510.33 440.53C511.248 438.921 512.506 437.531 514.017 436.458C515.528 435.385 517.254 434.655 519.076 434.318C518.523 433.803 518.009 433.25 517.507 432.749Z" fill="#FAFAFA"/>
<path d="M527.745 436.44L527.089 445.122C527.089 445.122 521.571 449.148 513.66 445.456C513.429 444.981 512.76 437.212 512.76 437.212L527.745 436.44Z" fill="#FFA8A7"/>
<path d="M497.055 439.141C497.055 439.141 497.428 429.919 510.535 428.646L511.294 429.044C509.802 426.732 507.514 425.047 504.862 424.311C500.515 423.192 497.068 424.311 494.778 427.064C492.489 429.816 494.791 437.353 497.055 439.141Z" fill="#FAFAFA"/>
<path d="M531.566 378.611C529.688 363.42 528.994 354.957 528.994 354.957C528.994 354.957 528.621 333.567 529.92 313.797C530.486 305.128 530.782 295.532 530.962 286.786C531.201 277.154 530.434 267.524 528.672 258.051C528.672 258.051 461.415 244.674 460.579 269.345C459.562 298.928 459.691 349.49 458.546 368.797C457.916 379.64 459.009 388.631 459.691 409.699C460.244 427.166 460.077 470.152 460.077 470.152C467.486 480.327 484.979 472.571 484.979 472.571C484.979 472.571 490.381 412.207 491.178 399.731C492.027 386.315 490.612 379.524 490.612 379.524L497.545 317.026C497.545 317.026 498.072 337.078 498.664 347.895C499.256 358.713 500.838 365.362 503.655 385.544C506.099 403.062 511.295 447.772 511.295 447.772C520.299 453.097 528.994 447.772 528.994 447.772C528.994 447.772 533.444 393.801 531.566 378.611Z" fill="#455A64"/>
<path d="M522.382 292.291C522.382 292.291 513.957 303.044 503.088 307.662C503.088 307.662 498.381 345.464 498.419 344.718L497.197 306.671C497.197 306.671 513.378 299.52 522.382 292.291Z" fill="#37474F"/>
<path d="M522.151 170.78C529.392 169.159 537.586 174.33 543.039 185.868C548.313 196.904 562.719 224.776 563.066 232.584C563.439 240.674 527.45 265.216 528.338 264.74C528.621 264.598 522.125 246.179 522.125 246.179L539.605 231.709L530.1 212.133L522.151 170.78Z" fill="#FFA8A7"/>
<path d="M518.342 169.044C524.439 168.298 535.487 170.6 539.706 177.932C545.829 188.543 551.411 200.814 558.524 216.673C558.524 216.673 553.25 228.095 538.073 229.175L528.979 213.226L518.342 169.044Z" fill="#37474F"/>
<path d="M487.652 159.487L488.707 181.996L511.01 180.8L510.329 154.65L487.652 159.487Z" fill="#FFA8A7"/>
<path d="M532.915 180.375C531.037 174.24 524.554 169.185 516.361 168.94C514.535 168.94 510.702 168.94 510.702 168.94C509.776 172.735 498.161 174.085 488.231 171.809C485.234 172.606 472.796 175.667 470.224 176.439C463.085 178.806 460.885 186.086 459.779 209.367C459.779 209.367 459.998 255.26 459.779 277.165C472.333 283.789 491.73 282.966 505.531 281.564C527.217 279.377 530.445 271.518 530.445 271.518C529.532 258.746 530.085 253.935 530.445 241.33C530.715 231.85 533.442 221.831 534.304 211.091C535.577 195.128 534.188 184.594 532.915 180.375Z" fill="#080C71"/>
<path d="M484.167 163.757C479.022 163.397 472.591 167.5 470.932 176.285L475.125 175.166L484.167 163.757Z" fill="#080C71"/>
<path opacity="0.3" d="M484.167 163.757C479.022 163.397 472.591 167.5 470.932 176.285L475.125 175.166L484.167 163.757Z" fill="black"/>
<path d="M487.935 165.635C491.794 166.921 503.049 166.741 506.817 165.635C510.586 164.529 510.547 162.857 510.547 162.857V160.966C512.721 160.96 514.844 161.62 516.631 162.857C519.037 164.812 523.178 171.86 523.063 175.243C522.947 178.626 515.718 187.552 501.775 187.334C487.832 187.115 479.999 181.957 477.594 178.562L475.176 175.153C475.176 175.153 478.481 168.362 481.736 165.506C483.404 163.889 485.544 162.844 487.845 162.522L487.935 165.635Z" fill="#080C71"/>
<path opacity="0.2" d="M487.935 165.635C491.794 166.921 503.049 166.741 506.817 165.635C510.586 164.529 510.547 162.857 510.547 162.857V160.966C512.721 160.96 514.844 161.62 516.631 162.857C519.037 164.812 523.178 171.86 523.063 175.243C522.947 178.626 515.718 187.552 501.775 187.334C487.832 187.115 479.999 181.957 477.594 178.562L475.176 175.153C475.176 175.153 478.481 168.362 481.736 165.506C483.404 163.889 485.544 162.844 487.845 162.522L487.935 165.635Z" fill="black"/>
<path d="M472.642 131.884C472.642 131.884 467.33 139.949 467.935 140.733C468.539 141.518 472.449 142.251 472.449 142.251L472.642 131.884Z" fill="#F28F8F"/>
<path d="M487.409 109.555C476.656 111.831 472.36 114.983 471.691 133.363C471.048 151.242 473.299 157.133 475.64 159.538C477.222 161.159 486.033 161.455 490.471 160.22C496.027 158.689 508.594 154.239 514.472 145.261C521.392 134.688 523.205 120.359 515.758 114.481C505.378 106.21 491.795 108.629 487.409 109.555Z" fill="#FFA8A7"/>
<path d="M475.639 159.525C476.925 160.811 483.086 161.3 487.716 160.734L487.652 158.072C483.816 159.487 479.702 159.985 475.639 159.525Z" fill="#F28F8F"/>
<path d="M470.263 116.462C472.942 118.382 476.265 119.181 479.524 118.687C479.459 120.128 479.846 121.554 480.63 122.764C481.722 124.416 483.377 125.613 485.286 126.134C484.109 128.442 483.483 130.991 483.46 133.582C483.387 134.395 483.562 135.211 483.961 135.923C484.085 136.181 484.279 136.4 484.521 136.553C484.764 136.706 485.045 136.787 485.331 136.787C485.618 136.787 485.899 136.706 486.141 136.553C486.383 136.4 486.578 136.181 486.701 135.923C487.306 134.554 488.066 133.26 488.965 132.064C490.131 130.669 491.77 129.753 493.57 129.492C500.322 128.758 501.171 137.595 498.47 141.261C494.045 147.254 490.29 143.19 490.29 143.19C490.117 146 490.544 148.814 491.542 151.446C492.54 154.078 494.086 156.468 496.078 158.458C500.878 159.872 505.965 160.001 510.831 158.831C516.825 150.586 520.594 146.573 523.796 139.46C530.562 124.398 527.295 114.944 522.06 110.957C521.031 104.024 515.564 100.911 509.326 99.4835C500.014 97.3355 491.319 102.866 482.083 100.77C480.568 100.452 479.07 100.058 477.594 99.5864C477.026 99.32 476.378 99.2786 475.781 99.4706C475.45 99.6906 475.19 100.003 475.035 100.369C474.88 100.734 474.835 101.138 474.906 101.529C475.022 103.304 476.823 105.272 477.736 106.223C475.719 106.408 473.686 106.291 471.703 105.876C471.015 105.747 470.308 105.747 469.62 105.876C468.864 106.184 468.226 106.723 467.796 107.416C467.366 108.11 467.167 108.921 467.227 109.735C467.235 111.006 467.509 112.261 468.032 113.42C468.555 114.579 469.315 115.615 470.263 116.462Z" fill="#263238"/>
<path d="M522.228 113.195L528.659 109.336C528.147 108.483 527.318 107.869 526.353 107.628C525.388 107.386 524.367 107.538 523.514 108.05C522.661 108.562 522.047 109.391 521.805 110.356C521.564 111.321 521.716 112.342 522.228 113.195Z" fill="#263238"/>
<path d="M438.415 214.512C436.958 208.784 435.551 203.047 434.196 197.302C432.91 192.016 430.929 185.893 432.743 180.491C433.774 178.131 435.068 175.896 436.602 173.828C437.929 171.648 439.048 169.349 439.946 166.96C440.396 165.802 440.808 164.619 441.232 163.448C441.657 162.278 442.261 161.609 441.978 160.49C441.039 156.824 436.306 161.635 435.341 163.139C434.913 163.929 434.414 164.679 433.849 165.378C433.232 166.033 431.727 166.857 431.007 165.892C430.766 165.505 430.633 165.061 430.621 164.606C430.132 158.959 432.164 153.904 433.849 148.631C434.115 147.938 434.276 147.21 434.325 146.47C434.356 146.1 434.306 145.728 434.179 145.38C434.053 145.031 433.852 144.714 433.592 144.45C433.173 144.129 432.676 143.924 432.152 143.856C431.628 143.788 431.095 143.86 430.608 144.064C429.656 144.386 428.833 144.991 427.881 145.286C426.929 145.582 426.222 145.582 425.386 145.801C423.402 146.243 421.492 146.966 419.713 147.949C416.626 149.763 415.263 152.412 414.453 155.782C413.479 159.921 413.149 164.186 413.475 168.426C413.694 171.243 414.195 174.021 414.543 176.799L415.7 186.099C416.485 192.299 416.716 223.271 417.784 229.432C418.852 235.593 420.91 239.722 425.784 241.767C432.859 244.649 444.293 231.632 450.789 224.892L438.415 214.512Z" fill="#FFA8A7"/>
<path d="M435.831 211.001C431.277 214.409 425.605 220.082 424.46 225.767C424.46 225.767 423.328 215.541 435.831 206.473V211.001Z" fill="#F28F8F"/>
<path d="M469.864 176.581C465.491 176.993 458.288 177.147 450.956 185.032C442.454 194.241 429.348 212.403 429.348 212.403C429.348 212.403 431.058 226.86 444.975 232.044C444.975 232.044 465.208 212.75 469.556 204.441C473.903 196.132 474.881 182.356 469.864 176.581Z" fill="#37474F"/>
<path d="M464.037 146.02L458.506 143.049L461.683 140.335L450.197 134.958L455.213 132.051L442.84 125.466L450.197 131.961L444.216 134.958L457.709 140.798L454.377 144.129L464.037 146.02Z" fill="#080C71"/>
<path d="M466.854 138.727L463.253 135.28L465.221 133.826L462.057 130.07L465.092 129.041L464.037 124.282L466.173 129.414L464.037 130.34L467.459 134.096L465.144 135.743L466.854 138.727Z" fill="#080C71"/>
<path d="M464.758 151.46L457.967 156.76L455.459 153.068L449.516 156.297L447.085 151.73L437.889 154.084L448.526 148.991L451.574 153.197L456.513 150.547L458.571 154.084L464.758 151.46Z" fill="#080C71"/>
<path d="M417.539 246.295C417.746 246.123 418.012 246.041 418.279 246.065C418.547 246.089 418.794 246.218 418.967 246.424C420.282 247.901 421.99 248.973 423.892 249.515C425.794 250.057 427.811 250.047 429.707 249.485C429.836 249.439 429.973 249.42 430.11 249.429C430.247 249.438 430.381 249.474 430.503 249.536C430.626 249.598 430.734 249.684 430.823 249.789C430.911 249.894 430.977 250.016 431.017 250.147C431.057 250.278 431.07 250.416 431.055 250.553C431.04 250.689 430.998 250.821 430.931 250.94C430.864 251.06 430.773 251.165 430.665 251.248C430.556 251.332 430.431 251.393 430.299 251.427C428.025 252.1 425.605 252.109 423.327 251.453C421.048 250.796 419.004 249.502 417.436 247.723C417.348 247.623 417.281 247.506 417.238 247.38C417.196 247.254 417.179 247.12 417.188 246.987C417.198 246.854 417.234 246.725 417.294 246.606C417.354 246.487 417.437 246.381 417.539 246.295Z" fill="#E0E0E0"/>
<path d="M418.57 253.099C418.75 252.949 418.978 252.866 419.213 252.866C419.448 252.866 419.676 252.949 419.856 253.099C420.903 253.856 422.103 254.375 423.372 254.62C424.64 254.864 425.947 254.828 427.201 254.514C427.466 254.465 427.741 254.523 427.965 254.674C428.189 254.826 428.344 255.06 428.397 255.325C428.423 255.455 428.423 255.589 428.397 255.719C428.371 255.849 428.319 255.973 428.245 256.083C428.171 256.193 428.076 256.287 427.965 256.36C427.854 256.433 427.73 256.483 427.599 256.508C426.05 256.868 424.44 256.883 422.884 256.551C421.328 256.22 419.864 255.551 418.596 254.591C418.494 254.505 418.411 254.4 418.351 254.281C418.29 254.162 418.254 254.032 418.245 253.899C418.235 253.766 418.252 253.633 418.295 253.507C418.337 253.38 418.405 253.264 418.493 253.164C418.516 253.139 418.542 253.117 418.57 253.099Z" fill="#E0E0E0"/>
<path d="M544.865 175.14C544.747 175.202 544.617 175.239 544.483 175.25C544.35 175.26 544.216 175.244 544.089 175.202C543.962 175.16 543.844 175.093 543.744 175.005C543.643 174.917 543.561 174.81 543.502 174.69C542.563 172.949 541.15 171.511 539.427 170.541C537.703 169.571 535.74 169.11 533.765 169.21C533.632 169.218 533.498 169.199 533.372 169.155C533.246 169.111 533.129 169.043 533.03 168.954C532.828 168.774 532.706 168.522 532.691 168.252C532.676 167.983 532.768 167.718 532.948 167.517C533.127 167.315 533.38 167.194 533.649 167.178C536.02 167.054 538.377 167.609 540.444 168.778C542.51 169.947 544.2 171.681 545.316 173.777C545.433 174.018 545.452 174.295 545.368 174.55C545.283 174.804 545.103 175.016 544.865 175.14Z" fill="#E0E0E0"/>
<path d="M545.432 168.323C545.216 168.436 544.967 168.467 544.731 168.411C544.494 168.354 544.286 168.213 544.146 168.014C543.315 167.044 542.286 166.264 541.127 165.727C539.969 165.19 538.708 164.908 537.431 164.902C537.298 164.897 537.167 164.865 537.045 164.81C536.924 164.754 536.815 164.675 536.724 164.577C536.633 164.479 536.563 164.364 536.516 164.239C536.47 164.113 536.449 163.98 536.454 163.847C536.459 163.713 536.49 163.582 536.546 163.461C536.602 163.34 536.681 163.23 536.779 163.14C536.877 163.049 536.992 162.978 537.117 162.932C537.242 162.886 537.375 162.864 537.509 162.869C539.095 162.885 540.658 163.248 542.089 163.933C543.52 164.617 544.784 165.606 545.792 166.831C545.937 167.049 545.991 167.314 545.943 167.571C545.895 167.829 545.749 168.057 545.535 168.207L545.432 168.323Z" fill="#E0E0E0"/>
<path d="M563.412 242.462C563.283 242.226 563.253 241.949 563.327 241.691C563.402 241.434 563.576 241.216 563.81 241.086C565.504 240.067 566.874 238.588 567.76 236.821C568.646 235.054 569.011 233.071 568.814 231.104C568.798 230.971 568.809 230.837 568.845 230.708C568.882 230.579 568.944 230.459 569.028 230.355C569.112 230.251 569.216 230.164 569.334 230.101C569.452 230.037 569.581 229.998 569.714 229.985C569.982 229.956 570.25 230.035 570.46 230.204C570.67 230.373 570.804 230.618 570.833 230.886C571.063 233.238 570.62 235.607 569.557 237.717C568.494 239.828 566.853 241.594 564.827 242.809C564.711 242.881 564.583 242.929 564.449 242.951C564.315 242.972 564.178 242.967 564.046 242.934C563.914 242.902 563.79 242.843 563.681 242.762C563.572 242.681 563.481 242.579 563.412 242.462Z" fill="#E0E0E0"/>
<path d="M570.242 242.706C570.127 242.497 570.089 242.254 570.133 242.019C570.178 241.785 570.303 241.573 570.486 241.42C571.42 240.547 572.153 239.482 572.634 238.299C573.116 237.115 573.336 235.841 573.278 234.564C573.278 234.295 573.385 234.037 573.575 233.846C573.766 233.655 574.024 233.548 574.294 233.548C574.563 233.548 574.822 233.655 575.012 233.846C575.203 234.037 575.31 234.295 575.31 234.564C575.365 236.148 575.076 237.725 574.464 239.186C573.851 240.647 572.928 241.958 571.76 243.028C571.655 243.111 571.535 243.172 571.407 243.209C571.278 243.245 571.144 243.256 571.011 243.24C570.879 243.225 570.751 243.183 570.634 243.118C570.517 243.053 570.415 242.965 570.332 242.861L570.242 242.706Z" fill="#E0E0E0"/>
<path d="M451.92 365.002C452.161 365.124 452.344 365.335 452.43 365.589C452.517 365.844 452.5 366.123 452.383 366.366C451.569 368.166 451.284 370.162 451.562 372.118C451.839 374.075 452.669 375.912 453.953 377.414C454.127 377.622 454.212 377.889 454.19 378.158C454.169 378.428 454.042 378.678 453.837 378.855C453.633 379.03 453.369 379.117 453.102 379.098C452.834 379.078 452.585 378.954 452.409 378.752C450.867 376.944 449.873 374.733 449.545 372.379C449.217 370.025 449.568 367.626 450.557 365.465C450.678 365.225 450.889 365.042 451.144 364.956C451.399 364.869 451.678 364.886 451.92 365.002Z" fill="#E0E0E0"/>
<path d="M446.159 368.668C446.379 368.772 446.554 368.951 446.653 369.172C446.752 369.394 446.768 369.644 446.699 369.877C446.429 371.127 446.433 372.42 446.71 373.668C446.988 374.915 447.533 376.088 448.307 377.106C448.459 377.327 448.518 377.599 448.472 377.863C448.427 378.127 448.28 378.363 448.062 378.521C447.842 378.676 447.57 378.737 447.305 378.691C447.039 378.645 446.803 378.496 446.648 378.276C445.694 377.004 445.03 375.54 444.701 373.985C444.372 372.43 444.387 370.821 444.744 369.273C444.783 369.143 444.848 369.024 444.935 368.92C445.021 368.816 445.127 368.731 445.247 368.668C445.367 368.606 445.498 368.568 445.632 368.557C445.767 368.546 445.902 368.562 446.03 368.604L446.159 368.668Z" fill="#E0E0E0"/>
<path d="M376.328 11.8645C376.265 10.6651 375.918 9.49776 375.317 8.45814C374.715 7.41851 373.876 6.53618 372.868 5.88347L370.064 4.24994C368.992 3.71342 367.809 3.43408 366.61 3.43408C365.412 3.43408 364.229 3.71342 363.157 4.24994L298.009 41.8982C297.002 42.5525 296.164 43.4351 295.563 44.4745C294.961 45.5138 294.614 46.6803 294.549 47.8792V81.5659C294.615 82.7645 294.963 83.9307 295.564 84.9699C296.165 86.009 297.003 86.8919 298.009 87.5469L300.826 89.1676C301.895 89.713 303.079 89.9973 304.279 89.9973C305.48 89.9973 306.663 89.713 307.733 89.1676L372.868 51.5322C373.876 50.8794 374.715 49.9971 375.317 48.9575C375.918 47.9179 376.265 46.7505 376.328 45.5511V11.8645Z" fill="#080C71"/>
<path opacity="0.5" d="M376.328 11.8645C376.265 10.6651 375.918 9.49776 375.317 8.45814C374.715 7.41851 373.876 6.53618 372.868 5.88347L370.064 4.24994C368.992 3.71342 367.809 3.43408 366.61 3.43408C365.412 3.43408 364.229 3.71342 363.157 4.24994L298.009 41.8982C297.002 42.5525 296.164 43.4351 295.563 44.4745C294.961 45.5138 294.614 46.6803 294.549 47.8792V81.5659C294.615 82.7645 294.963 83.9307 295.564 84.9699C296.165 86.009 297.003 86.8919 298.009 87.5469L300.826 89.1676C301.895 89.713 303.079 89.9973 304.279 89.9973C305.48 89.9973 306.663 89.713 307.733 89.1676L372.868 51.5322C373.876 50.8794 374.715 49.9971 375.317 48.9575C375.918 47.9179 376.265 46.7505 376.328 45.5511V11.8645Z" fill="white"/>
<path opacity="0.2" d="M294.549 81.5659C294.615 82.7646 294.963 83.9307 295.564 84.9699C296.165 86.009 297.003 86.8919 298.009 87.5469L300.826 89.1676C301.799 89.6579 302.865 89.9366 303.953 89.9854C305.042 90.0342 306.128 89.8519 307.141 89.4505C305.508 90.0679 304.273 89.1547 304.273 87.1739V53.4872C304.315 52.2829 304.664 51.1093 305.289 50.0787L295.565 44.4707C294.939 45.5006 294.589 46.6746 294.549 47.8792V81.5659Z" fill="black"/>
<path opacity="0.3" d="M376.213 10.887C375.814 9.42072 374.476 8.94482 372.881 9.87091L307.733 47.5063C306.708 48.1354 305.865 49.0224 305.289 50.0788L295.578 44.4708C296.153 43.4178 296.99 42.5315 298.009 41.8983L363.144 4.2629C364.214 3.71747 365.397 3.43311 366.598 3.43311C367.798 3.43311 368.982 3.71747 370.051 4.2629L372.881 5.88356C373.746 6.44898 374.487 7.18391 375.06 8.04391C375.632 8.90392 376.024 9.87112 376.213 10.887Z" fill="white"/>
<path d="M304.287 64.3819L294.576 58.7739L282.871 70.0414C282.695 70.2186 282.561 70.4336 282.481 70.67C282.4 70.9064 282.374 71.1581 282.405 71.4059C282.436 71.6538 282.523 71.8914 282.66 72.1007C282.796 72.31 282.978 72.4855 283.193 72.6139L292.749 78.1704C293.145 78.3775 293.59 78.471 294.036 78.4405L304.325 76.4726V64.3819H304.287Z" fill="#080C71"/>
<path opacity="0.5" d="M304.287 64.3819L294.576 58.7739L282.871 70.0414C282.695 70.2186 282.561 70.4336 282.481 70.67C282.4 70.9064 282.374 71.1581 282.405 71.4059C282.436 71.6538 282.523 71.8914 282.66 72.1007C282.796 72.31 282.978 72.4855 283.193 72.6139L292.749 78.1704C293.145 78.3775 293.59 78.471 294.036 78.4405L304.325 76.4726V64.3819H304.287Z" fill="white"/>
<path opacity="0.3" d="M292.748 78.1701L287.604 75.2246L286.999 74.8259L284.246 73.231L283.912 73.0251L283.179 72.6007C282.965 72.4723 282.782 72.2968 282.646 72.0875C282.51 71.8782 282.423 71.6406 282.392 71.3928C282.361 71.1449 282.386 70.8932 282.467 70.6568C282.548 70.4204 282.681 70.2054 282.857 70.0282L294.562 58.7607L304.286 64.3816L292.581 75.5976C292.395 75.7628 292.25 75.9682 292.155 76.1981C292.061 76.4281 292.02 76.6766 292.036 76.9247C292.052 77.1728 292.125 77.414 292.248 77.6298C292.372 77.8456 292.543 78.0304 292.748 78.1701Z" fill="white"/>
<path d="M323.309 54.0276C321.965 54.9018 320.846 56.0807 320.044 57.4687C319.242 58.8566 318.778 60.4144 318.691 62.0152C318.691 64.9478 320.762 66.144 323.309 64.6777C324.651 63.8029 325.768 62.6235 326.568 61.2355C327.368 59.8474 327.829 58.2901 327.914 56.6902C327.914 53.7318 325.856 52.5613 323.309 54.0276Z" fill="white"/>
<path d="M340.3 44.2009C338.958 45.0757 337.841 46.2551 337.041 47.6431C336.241 49.0312 335.78 50.5885 335.695 52.1884C335.695 55.1211 337.753 56.3173 340.3 54.8381C341.641 53.9646 342.756 52.7872 343.556 51.4015C344.356 50.0159 344.818 48.4611 344.905 46.8634C344.879 43.9179 342.847 42.7217 340.3 44.2009Z" fill="white"/>
<path d="M357.292 34.3607C355.952 35.2378 354.837 36.4178 354.037 37.8053C353.237 39.1928 352.775 40.7491 352.688 42.3483C352.688 45.2938 354.745 46.4771 357.292 45.0108C358.638 44.1354 359.757 42.9544 360.56 41.5641C361.362 40.1737 361.825 38.6134 361.91 37.0104C361.91 34.0906 359.839 32.8944 357.292 34.3607Z" fill="white"/>
<path d="M501.723 77.9006L497.054 69.167L500.81 58.324V51.6484L489.311 58.2854V64.9224L494.25 73.4888C494.331 73.6168 494.447 73.7193 494.584 73.7846L501.723 77.9006Z" fill="#080C71"/>
<path opacity="0.2" d="M501.723 77.9006L497.054 69.167L500.81 58.324V51.6484L489.311 58.2854V64.9224L494.25 73.4888C494.331 73.6168 494.447 73.7193 494.584 73.7846L501.723 77.9006Z" fill="black"/>
<path d="M536.645 8.43069C536.581 7.23467 536.236 6.07065 535.637 5.0335C535.037 3.99635 534.202 3.11543 533.198 2.46253L530.394 0.841872C529.326 0.296548 528.145 0.012207 526.947 0.012207C525.748 0.012207 524.567 0.296548 523.499 0.841872L458.506 38.3872C457.506 39.0482 456.674 39.9327 456.076 40.9708C455.478 42.009 455.129 43.1722 455.059 44.3683V77.9777C455.122 79.1738 455.468 80.3378 456.067 81.3749C456.666 82.4121 457.502 83.293 458.506 83.9459L461.31 85.5666C462.38 86.101 463.56 86.3792 464.757 86.3792C465.953 86.3792 467.133 86.101 468.204 85.5666L496.501 69.1027L501.44 77.6433C501.512 77.7576 501.613 77.8496 501.734 77.909C501.855 77.9684 501.99 77.9928 502.124 77.9794C502.257 77.966 502.385 77.9154 502.492 77.8332C502.598 77.7511 502.68 77.6408 502.727 77.5147L507.949 62.4785L533.133 48.0083C534.138 47.3554 534.973 46.4745 535.572 45.4374C536.171 44.4002 536.517 43.2362 536.581 42.0402L536.645 8.43069Z" fill="#080C71"/>
<path d="M474.532 50.8763L526.496 20.8683C528.04 19.9808 529.287 20.6111 529.287 22.2832C529.218 23.218 528.928 24.1232 528.444 24.9254C527.959 25.7277 527.292 26.4044 526.496 26.9008L474.532 56.9088C473.002 57.7963 471.754 57.166 471.754 55.4939C471.823 54.5606 472.111 53.6565 472.593 52.8545C473.076 52.0525 473.74 51.3749 474.532 50.8763Z" fill="white"/>
<path d="M474.532 64.2408L526.496 34.2457C528.04 33.3581 529.287 33.9884 529.287 35.6477C529.219 36.5847 528.931 37.4925 528.446 38.2971C527.961 39.1017 527.293 39.7805 526.496 40.2781L474.532 70.2733C473.002 71.1736 471.754 70.5305 471.754 68.8713C471.821 67.9356 472.108 67.029 472.591 66.2246C473.073 65.4203 473.738 64.7407 474.532 64.2408Z" fill="white"/>
<path opacity="0.2" d="M455.059 77.9775C455.122 79.1735 455.468 80.3375 456.067 81.3747C456.666 82.4118 457.502 83.2928 458.506 83.9456L461.31 85.5663C462.281 86.0548 463.345 86.3325 464.431 86.3812C465.517 86.43 466.601 86.2487 467.612 85.8493C465.992 86.4538 464.757 85.5406 464.757 83.5726V49.9632C464.798 48.7645 465.143 47.596 465.76 46.5675L456.062 40.9595C455.445 41.9927 455.1 43.1653 455.059 44.368V77.9775Z" fill="black"/>
<path opacity="0.2" d="M536.529 7.42714C536.13 5.96082 534.792 5.49777 533.197 6.411L468.203 43.9692C467.18 44.5973 466.342 45.4848 465.772 46.5417L456.074 40.9466C456.651 39.8953 457.488 39.0095 458.505 38.3741L523.486 0.815858C524.558 0.279337 525.741 0 526.94 0C528.139 0 529.321 0.279337 530.393 0.815858L533.197 2.43652C534.063 2.99767 534.805 3.72978 535.378 4.58795C535.951 5.44613 536.342 6.41227 536.529 7.42714Z" fill="white"/>
</svg>
