<?xml version="1.0" encoding="UTF-8"?>
<!DOCTYPE svg PUBLIC "-//W3C//DTD SVG 1.1//EN" "http://www.w3.org/Graphics/SVG/1.1/DTD/svg11.dtd">
<svg xmlns="http://www.w3.org/2000/svg" version="1.1" width="179px" height="193px" style="shape-rendering:geometricPrecision; text-rendering:geometricPrecision; image-rendering:optimizeQuality; fill-rule:evenodd; clip-rule:evenodd" xmlns:xlink="http://www.w3.org/1999/xlink">
<g><path style="opacity:1" fill="#0a0c70" d="M -0.5,-0.5 C 59.1667,-0.5 118.833,-0.5 178.5,-0.5C 178.5,63.8333 178.5,128.167 178.5,192.5C 118.833,192.5 59.1667,192.5 -0.5,192.5C -0.5,128.167 -0.5,63.8333 -0.5,-0.5 Z"/></g>
<g><path style="opacity:1" fill="#8f0623" d="M 98.5,20.5 C 102.356,18.8429 104.189,20.1763 104,24.5C 103.617,25.056 103.117,25.3893 102.5,25.5C 101.549,24.0813 101.216,22.4147 101.5,20.5C 100.5,20.5 99.5,20.5 98.5,20.5 Z"/></g>
<g><path style="opacity:1" fill="#c4061e" d="M 131.5,21.5 C 131.443,22.609 131.11,23.609 130.5,24.5C 128.545,26.3258 126.212,26.8258 123.5,26C 121.857,22.8574 122.691,20.6908 126,19.5C 127.9,20.0769 129.733,20.7435 131.5,21.5 Z"/></g>
<g><path style="opacity:1" fill="#cb041d" d="M 98.5,20.5 C 99.5,20.5 100.5,20.5 101.5,20.5C 101.216,22.4147 101.549,24.0813 102.5,25.5C 99.9882,26.8674 97.6548,26.534 95.5,24.5C 95.5,23.5 95.5,22.5 95.5,21.5C 96.209,20.596 97.209,20.2627 98.5,20.5 Z"/></g>
<g><path style="opacity:1" fill="#baa296" d="M 95.5,21.5 C 95.5,22.5 95.5,23.5 95.5,24.5C 86.2481,24.9207 80.4148,29.5873 78,38.5C 77.3008,54.3662 79.8008,69.6995 85.5,84.5C 84.1667,84.5 83.5,85.1667 83.5,86.5C 77.0026,70.2085 74.5026,53.2085 76,35.5C 79.6105,26.7805 86.1105,22.1138 95.5,21.5 Z"/></g>
<g><path style="opacity:1" fill="#b49c95" d="M 131.5,21.5 C 141.881,22.7144 148.381,28.381 151,38.5C 151.701,54.361 149.201,69.6944 143.5,84.5C 142.833,84.5 142.167,84.5 141.5,84.5C 147.107,68.9757 149.274,52.9757 148,36.5C 145.054,28.4334 139.22,24.4334 130.5,24.5C 131.11,23.609 131.443,22.609 131.5,21.5 Z"/></g>
<g><path style="opacity:1" fill="#ceaf94" d="M 63.5,62.5 C 64.0922,65.6305 63.0922,67.9639 60.5,69.5C 60.6481,60.5767 56.3147,56.7434 47.5,58C 41.7181,61.3661 40.0514,66.1995 42.5,72.5C 41.3684,73.3543 40.035,73.3543 38.5,72.5C 36.3123,57.523 42.6456,51.6897 57.5,55C 60.8172,56.4802 62.8172,58.9802 63.5,62.5 Z"/></g>
<g><path style="opacity:1" fill="#d93637" d="M 60.5,69.5 C 55.7397,77.5619 49.7397,78.5619 42.5,72.5C 40.0514,66.1995 41.7181,61.3661 47.5,58C 56.3147,56.7434 60.6481,60.5767 60.5,69.5 Z"/></g>
<g><path style="opacity:1" fill="#f0e1d0" d="M 57.5,63.5 C 56.2347,64.4793 54.9014,65.4793 53.5,66.5C 52.2638,65.7542 50.9305,65.4208 49.5,65.5C 49.5,66.8333 49.5,68.1667 49.5,69.5C 47.5,69.8333 45.5,70.1667 43.5,70.5C 42.0006,61.8348 45.6672,58.3348 54.5,60C 56.4257,60.4224 57.4257,61.5891 57.5,63.5 Z"/></g>
<g><path style="opacity:1" fill="#cdac8f" d="M 57.5,63.5 C 59.9166,71.4849 56.9166,75.3183 48.5,75C 46.3395,74.0041 44.6728,72.5041 43.5,70.5C 45.5,70.1667 47.5,69.8333 49.5,69.5C 49.5,68.1667 49.5,66.8333 49.5,65.5C 50.9305,65.4208 52.2638,65.7542 53.5,66.5C 54.9014,65.4793 56.2347,64.4793 57.5,63.5 Z"/></g>
<g><path style="opacity:1" fill="#a8846f" d="M 63.5,62.5 C 65.6877,70.5894 63.0211,76.5894 55.5,80.5C 54.1667,80.5 52.8333,80.5 51.5,80.5C 45.1238,81.1194 40.7905,78.4527 38.5,72.5C 40.035,73.3543 41.3684,73.3543 42.5,72.5C 49.7397,78.5619 55.7397,77.5619 60.5,69.5C 63.0922,67.9639 64.0922,65.6305 63.5,62.5 Z"/></g>
<g><path style="opacity:1" fill="#c70c25" d="M 85.5,84.5 C 89.4976,94.9986 96.4976,102.832 106.5,108C 113.249,109.331 119.582,108.331 125.5,105C 128.694,101.806 131.86,98.6396 135,95.5C 137.087,91.678 139.253,88.0114 141.5,84.5C 142.167,84.5 142.833,84.5 143.5,84.5C 139.578,99.4219 130.244,109.089 115.5,113.5C 114.081,112.549 112.415,112.216 110.5,112.5C 104.806,111.988 99.8061,109.821 95.5,106C 90.3493,100.197 86.3493,93.6967 83.5,86.5C 83.5,85.1667 84.1667,84.5 85.5,84.5 Z"/></g>
<g><path style="opacity:1" fill="#dc1127" d="M 51.5,80.5 C 52.8333,80.5 54.1667,80.5 55.5,80.5C 55.6646,83.5184 55.498,86.5184 55,89.5C 52.3872,96.3957 50.0538,103.396 48,110.5C 43.9623,130.604 51.4623,144.104 70.5,151C 83.771,153.472 94.271,149.305 102,138.5C 106.942,130.508 109.775,121.841 110.5,112.5C 112.415,112.216 114.081,112.549 115.5,113.5C 113.431,122.538 110.264,131.204 106,139.5C 93.2964,156.632 77.4631,160.132 58.5,150C 45.183,139.727 40.3497,126.227 44,109.5C 45.4051,103.618 47.4051,97.951 50,92.5C 51.0153,88.5598 51.5153,84.5598 51.5,80.5 Z"/></g>
</svg>
