<svg width="219" height="219" viewBox="0 0 219 219" fill="none" xmlns="http://www.w3.org/2000/svg">
<path opacity="0.4" d="M109.5 219C169.977 219 219 169.977 219 109.5C219 49.0232 169.977 0 109.5 0C49.0232 0 0 49.0232 0 109.5C0 169.977 49.0232 219 109.5 219Z" fill="#36B863"/>
<path d="M93.9512 148.723C91.7739 148.721 89.6864 147.854 88.1477 146.314L57.1592 115.325C55.6319 113.78 54.7754 111.695 54.7754 109.522C54.7754 107.349 55.6319 105.264 57.1592 103.718C60.3347 100.543 65.5907 100.543 68.7662 103.718L93.9512 128.903L150.234 72.6204C153.41 69.4449 158.666 69.4449 161.841 72.6204C165.017 75.7959 165.017 81.0519 161.841 84.2274L99.7547 146.314C98.2161 147.854 96.1286 148.721 93.9512 148.723Z" fill="#259A59"/>
</svg>
